ISO-10303-21;
HEADER;
FILE_DESCRIPTION(('ViewDefinition [CoordinationView_V2.0]'),'2;1');
FILE_NAME('REFERENCE-BIM-0001.ifc','20260823T213216',('HERMES OS ARCHITECTURAL LEAD'),('HERMES CONSTRUCTION OS'),'web-ifc / IfcOpenShell Engine','HERMES CAD/BIM WORKSPACE','');
FILE_SCHEMA(('IFC4'));
ENDSEC;
DATA;
#1=IFCPERSON($,$,'HERMES',$,$,$,$,$);
#2=IFCORGANIZATION($,'HERMES CONSTRUCTION OS',$,$,$);
#3=IFCPERSONANDORGANIZATION(#1,#2,$);
#4=IF APPLICATION(#2,'2026.1','HERMES OS BIM WORKSPACE','HERMES-CAD');
#5=IFCOWNERHISTORY(#3,#4,$,.READWRITE.,$,$,$,1787519300);
#6=IFCDIRECTION((1.,0.,0.));
#7=IFCDIRECTION((0.,0.,1.));
#8=IFCCARTESIANPOINT((0.,0.,0.));
#9=IFCAXIS2PLACEMENT3D(#8,#7,#6);
#10=IFCPROJECT('00000000-0000-0000-0000-000000000001',#5,'HERMES Multi-Storey OpenBIM Reference Residence (Schependomlaan Class)',$,$,$,$,(#11),#12);
#11=IFCGEOMETRICREPRESENTATIONCONTEXT($,'Model',3,1.E-05,#9,$);
#12=IFCUNITASSIGNMENT((#13,#14));
#13=IFCSIUNIT(*,.LENGTHUNIT.,$,.METRE.);
#14=IFCSIUNIT(*,.PLANEANGLEUNIT.,$,.RADIAN.);
#15=IFCSITE('00000000-0000-0000-0000-000000000002',#5,'Reference Building Site',$,$,#9,$,$,.ELEMENT.,(0,0,0),(0,0,0),0.,$,$);
#16=IFCBUILDING('00000000-0000-0000-0000-000000000003',#5,'Main Reference Building',$,$,#9,$,$,.ELEMENT.,$,$,$);
#20=IFCBUILDINGSTOREY('0f8A1_B2_FoundationStorey',#5,'Level 0 - Foundation & Grade',$,$,#9,$,$,.ELEMENT.,0);
#21=IFCBUILDINGSTOREY('1f9B2_C3_GroundStorey',#5,'Level 1 - Ground Floor',$,$,#9,$,$,.ELEMENT.,0.6);
#22=IFCBUILDINGSTOREY('2f0C3_D4_UpperStorey',#5,'Level 2 - Upper Floor',$,$,#9,$,$,.ELEMENT.,3.6);
#23=IFCBUILDINGSTOREY('3f1D4_E5_RoofLevel',#5,'Level 3 - Roof Structure',$,$,#9,$,$,.ELEMENT.,6.4);
#100=IFCSLAB('1a111111-2222-3333-4444-555555555501',#5,'Structural Concrete Slab on Grade (6")',$,$,#9,$,$);
#101=IFCSLAB('1a111111-2222-3333-4444-555555555502',#5,'Level 2 Structural Timber Floor Decking & I-Joist Assembly',$,$,#9,$,$);
#102=IFCCOLUMN('2b222222-3333-4444-5555-666666666601',#5,'HSS 6x6x3/8 Steel Structural Column C-1',$,$,#9,$,$);
#103=IFCBEAM('3c333333-4444-5555-6666-777777777701',#5,'W12x26 Structural Steel Transfer Girder B-1',$,$,#9,$,$);
#104=IFCWALLSTANDARDCASE('4d444444-5555-6666-7777-888888888801',#5,'North Exterior High-Performance R-21 Wood Frame Wall W-101',$,$,#9,$,$);
#105=IFCWALLSTANDARDCASE('4d444444-5555-6666-7777-888888888802',#5,'Interior Wet Wall Partition W-102 (Bath 1 / Kitchen Boundary)',$,$,#9,$,$);
#106=IFCDOOR('5e555555-6666-7777-8888-999999999901',#5,'Main Exterior Insulated Solid Core Entry Door D-101',$,$,#9,$,$);
#107=IFCWINDOW('6f666666-7777-8888-9999-000000000001',#5,'Triple-Glazed Low-E Argon-Filled Energy Star Window WN-101',$,$,#9,$,$);
#108=IFCSTAIR('7g777777-8888-9999-0000-111111111101',#5,'Main Inter-Storey Hardwood Staircase (Level 1 to Level 2)',$,$,#9,$,$);
#109=IFCROOF('8h888888-9999-0000-1111-222222222201',#5,'Engineered Wood Truss Roof Assembly (R-49 Mineral Wool Attic Insulation)',$,$,#9,$,$);
#110=IFCPIPESEGMENT('9i999999-0000-1111-2222-333333333301',#5,'3" Schedule 40 PVC Sanitary Soil Stack Pipe PS-01',$,$,#9,$,$);
#111=IFCPIPEFITTING('9i999999-0000-1111-2222-333333333302',#5,'3" PVC 90-Degree Long Sweep Sanitary Elbow PF-01',$,$,#9,$,$);
#112=IFCFLOWTERMINAL('9i999999-0000-1111-2222-333333333303',#5,'High-Efficiency Dual-Flush 1.28/0.8 GPF Water Closet Fixture WC-1',$,$,#9,$,$);
#113=IFCDUCTSEGMENT('0j000000-1111-2222-3333-444444444401',#5,'12"x8" Galvanized Steel Insulated Main HVAC Supply Trunk DS-01',$,$,#9,$,$);
#114=IFCFLOWTERMINAL('0j000000-1111-2222-3333-444444444402',#5,'Ceiling Supply Diffuser 4-Way Throw 2x2 FT-01',$,$,#9,$,$);
#115=IFCELECTRICAPPLIANCE('1k111111-2222-3333-4444-555555555501',#5,'200A 120/240V 42-Space Main Electrical Breaker Panel EP-01',$,$,#9,$,$);
#116=IFCCABLESEGMENT('1k111111-2222-3333-4444-555555555502',#5,'12/2 NMB Romex Copper Building Cable Wire C-101',$,$,#9,$,$);
#117=IFCOUTLET('1k111111-2222-3333-4444-555555555503',#5,'20A 125V Tamper-Resistant Smartlock GFCI Duplex Receptacle OUT-1',$,$,#9,$,$);
ENDSEC;
END-ISO-10303-21;