ISO-10303-21;
HEADER;
FILE_DESCRIPTION(('ViewDefinition [CoordinationView_V2.0]'),'2;1');
FILE_NAME('REFERENCE-BIM-0001.ifc','20260830T021402',('HERMES OS ARCHITECTURAL LEAD'),('HERMES CONSTRUCTION OS'),'web-ifc / IfcOpenShell Engine','HERMES CAD/BIM WORKSPACE','');
FILE_SCHEMA(('IFC4'));
ENDSEC;
DATA;
#1=IFCPERSON($,$,'HERMES',$,$,$,$,$);
#2=IFCORGANIZATION($,'HERMES CONSTRUCTION OS',$,$,$);
#3=IFCPERSONANDORGANIZATION(#1,#2,$);
#4=IFCAPPLICATION(#2,'2026.1','HERMES OS BIM WORKSPACE','HERMES-CAD');
#5=IFCOWNERHISTORY(#3,#4,$,.READWRITE.,$,$,$,1787519300);
#6=IFCDIRECTION((1.,0.,0.));
#7=IFCDIRECTION((0.,0.,1.));
#8=IFCCARTESIANPOINT((0.,0.,0.));
#9=IFCAXIS2PLACEMENT3D(#8,#7,#6);
#10=IFCPROJECT('00000000-0000-0000-0000-000000000001',#5,'HERMES Multi-Storey OpenBIM Reference Residence (Schependomlaan Class)',$,$,$,$,(#11),#12);
#11=IFCGEOMETRICREPRESENTATIONCONTEXT($,'Model',3,1.E-05,#9,$);
#12=IFCUNITASSIGNMENT((#13,#14));
#13=IFCSIUNIT(*,.LENGTHUNIT.,$,.METRE.);
#14=IFCSIUNIT(*,.PLANEANGLEUNIT.,$,.RADIAN.);
#15=IFCSITE('00000000-0000-0000-0000-000000000002',#5,'Reference Building Site',$,$,#9,$,$,.ELEMENT.,(0,0,0),(0,0,0),0.,$,$);
#16=IFCBUILDING('00000000-0000-0000-0000-000000000003',#5,'Main Reference Building',$,$,#9,$,$,.ELEMENT.,$,$,$);
#31=IFCDIRECTION((0.,0.,1.));
#20=IFCBUILDINGSTOREY('0f8A1_B2_FoundationStorey',#5,'Level 0 - Foundation & Grade',$,$,#9,$,$,.ELEMENT.,0);
#21=IFCBUILDINGSTOREY('1f9B2_C3_GroundStorey',#5,'Level 1 - Ground Floor',$,$,#9,$,$,.ELEMENT.,0.6);
#22=IFCBUILDINGSTOREY('2f0C3_D4_UpperStorey',#5,'Level 2 - Upper Floor',$,$,#9,$,$,.ELEMENT.,3.6);
#23=IFCBUILDINGSTOREY('3f1D4_E5_RoofLevel',#5,'Level 3 - Roof Structure',$,$,#9,$,$,.ELEMENT.,6.4);
#1000=IFCRECTANGLEPROFILEDEF(.AREA.,'Profile',$,12.0000,0.2000);
#1001=IFCCARTESIANPOINT((0.0000,0.0000,0.0000));
#1002=IFCDIRECTION((1.0000,0.0000,0.));
#1003=IFCAXIS2PLACEMENT3D(#1001,#7,#1002);
#1004=IFCLOCALPLACEMENT($,#1003);
#1005=IFCEXTRUDEDAREASOLID(#1000,#9,#31,10.0000);
#1006=IFCSHAPEREPRESENTATION(#11,'Body','SweptSolid',(#1005));
#1007=IFCPRODUCTDEFINITIONSHAPE($,$,(#1006));
#1008=IFCSLAB('1a111111-2222-3333-4444-555555555501',#5,'Structural Concrete Slab on Grade (6")',$,$,#1004,#1007,$);
#1009=IFCRECTANGLEPROFILEDEF(.AREA.,'Profile',$,12.0000,0.3500);
#1010=IFCCARTESIANPOINT((0.0000,3.6000,0.0000));
#1011=IFCDIRECTION((1.0000,0.0000,0.));
#1012=IFCAXIS2PLACEMENT3D(#1010,#7,#1011);
#1013=IFCLOCALPLACEMENT($,#1012);
#1014=IFCEXTRUDEDAREASOLID(#1009,#9,#31,10.0000);
#1015=IFCSHAPEREPRESENTATION(#11,'Body','SweptSolid',(#1014));
#1016=IFCPRODUCTDEFINITIONSHAPE($,$,(#1015));
#1017=IFCSLAB('1a111111-2222-3333-4444-555555555502',#5,'Level 2 Structural Timber Floor Decking & I-Joist Assembly',$,$,#1013,#1016,$);
#1018=IFCRECTANGLEPROFILEDEF(.AREA.,'Profile',$,0.1500,3.0000);
#1019=IFCCARTESIANPOINT((4.0000,0.6000,2.0000));
#1020=IFCDIRECTION((1.0000,0.0000,0.));
#1021=IFCAXIS2PLACEMENT3D(#1019,#7,#1020);
#1022=IFCLOCALPLACEMENT($,#1021);
#1023=IFCEXTRUDEDAREASOLID(#1018,#9,#31,0.1500);
#1024=IFCSHAPEREPRESENTATION(#11,'Body','SweptSolid',(#1023));
#1025=IFCPRODUCTDEFINITIONSHAPE($,$,(#1024));
#1026=IFCCOLUMN('2b222222-3333-4444-5555-666666666601',#5,'HSS 6x6x3/8 Steel Structural Column C-1',$,$,#1022,#1025,$);
#1027=IFCRECTANGLEPROFILEDEF(.AREA.,'Profile',$,0.1600,0.3100);
#1028=IFCCARTESIANPOINT((0.0000,3.4000,2.0000));
#1029=IFCDIRECTION((1.0000,0.0000,0.));
#1030=IFCAXIS2PLACEMENT3D(#1028,#7,#1029);
#1031=IFCLOCALPLACEMENT($,#1030);
#1032=IFCEXTRUDEDAREASOLID(#1027,#9,#31,8.0000);
#1033=IFCSHAPEREPRESENTATION(#11,'Body','SweptSolid',(#1032));
#1034=IFCPRODUCTDEFINITIONSHAPE($,$,(#1033));
#1035=IFCBEAM('3c333333-4444-5555-6666-777777777701',#5,'W12x26 Structural Steel Transfer Girder B-1',$,$,#1031,#1034,$);
#1036=IFCRECTANGLEPROFILEDEF(.AREA.,'Profile',$,0.2800,3.0000);
#1037=IFCCARTESIANPOINT((-6.0000,0.6000,5.0000));
#1038=IFCDIRECTION((1.0000,0.0000,0.));
#1039=IFCAXIS2PLACEMENT3D(#1037,#7,#1038);
#1040=IFCLOCALPLACEMENT($,#1039);
#1041=IFCEXTRUDEDAREASOLID(#1036,#9,#31,12.0000);
#1042=IFCSHAPEREPRESENTATION(#11,'Body','SweptSolid',(#1041));
#1043=IFCPRODUCTDEFINITIONSHAPE($,$,(#1042));
#1044=IFCWALLSTANDARDCASE('4d444444-5555-6666-7777-888888888801',#5,'North Exterior High-Performance R-21 Wood Frame Wall W-101',$,$,#1040,#1043,$);
#1045=IFCRECTANGLEPROFILEDEF(.AREA.,'Profile',$,0.1800,3.0000);
#1046=IFCCARTESIANPOINT((1.0000,0.6000,1.0000));
#1047=IFCDIRECTION((0.0000,1.0000,0.));
#1048=IFCAXIS2PLACEMENT3D(#1046,#7,#1047);
#1049=IFCLOCALPLACEMENT($,#1048);
#1050=IFCEXTRUDEDAREASOLID(#1045,#9,#31,4.5000);
#1051=IFCSHAPEREPRESENTATION(#11,'Body','SweptSolid',(#1050));
#1052=IFCPRODUCTDEFINITIONSHAPE($,$,(#1051));
#1053=IFCWALLSTANDARDCASE('4d444444-5555-6666-7777-888888888802',#5,'Interior Wet Wall Partition W-102 (Bath 1 / Kitchen Boundary)',$,$,#1049,#1052,$);
#1054=IFCRECTANGLEPROFILEDEF(.AREA.,'Profile',$,0.0600,2.1300);
#1055=IFCCARTESIANPOINT((-1.0000,0.6000,5.0000));
#1056=IFCDIRECTION((1.0000,0.0000,0.));
#1057=IFCAXIS2PLACEMENT3D(#1055,#7,#1056);
#1058=IFCLOCALPLACEMENT($,#1057);
#1059=IFCEXTRUDEDAREASOLID(#1054,#9,#31,0.9100);
#1060=IFCSHAPEREPRESENTATION(#11,'Body','SweptSolid',(#1059));
#1061=IFCPRODUCTDEFINITIONSHAPE($,$,(#1060));
#1062=IFCDOOR('5e555555-6666-7777-8888-999999999901',#5,'Main Exterior Insulated Solid Core Entry Door D-101',$,$,#1058,#1061,$);
#1063=IFCRECTANGLEPROFILEDEF(.AREA.,'Profile',$,0.1200,1.5000);
#1064=IFCCARTESIANPOINT((-4.0000,1.2000,5.0000));
#1065=IFCDIRECTION((1.0000,0.0000,0.));
#1066=IFCAXIS2PLACEMENT3D(#1064,#7,#1065);
#1067=IFCLOCALPLACEMENT($,#1066);
#1068=IFCEXTRUDEDAREASOLID(#1063,#9,#31,1.8000);
#1069=IFCSHAPEREPRESENTATION(#11,'Body','SweptSolid',(#1068));
#1070=IFCPRODUCTDEFINITIONSHAPE($,$,(#1069));
#1071=IFCWINDOW('6f666666-7777-8888-9999-000000000001',#5,'Triple-Glazed Low-E Argon-Filled Energy Star Window WN-101',$,$,#1067,#1070,$);
#1072=IFCRECTANGLEPROFILEDEF(.AREA.,'Profile',$,1.1000,3.0000);
#1073=IFCCARTESIANPOINT((3.0000,0.6000,3.0000));
#1074=IFCDIRECTION((1.0000,0.0000,0.));
#1075=IFCAXIS2PLACEMENT3D(#1073,#7,#1074);
#1076=IFCLOCALPLACEMENT($,#1075);
#1077=IFCEXTRUDEDAREASOLID(#1072,#9,#31,3.8000);
#1078=IFCSHAPEREPRESENTATION(#11,'Body','SweptSolid',(#1077));
#1079=IFCPRODUCTDEFINITIONSHAPE($,$,(#1078));
#1080=IFCSTAIR('7g777777-8888-9999-0000-111111111101',#5,'Main Inter-Storey Hardwood Staircase (Level 1 to Level 2)',$,$,#1076,#1079,$);
#1081=IFCRECTANGLEPROFILEDEF(.AREA.,'Profile',$,13.0000,2.2000);
#1082=IFCCARTESIANPOINT((0.0000,6.4000,0.0000));
#1083=IFCDIRECTION((1.0000,0.0000,0.));
#1084=IFCAXIS2PLACEMENT3D(#1082,#7,#1083);
#1085=IFCLOCALPLACEMENT($,#1084);
#1086=IFCEXTRUDEDAREASOLID(#1081,#9,#31,11.0000);
#1087=IFCSHAPEREPRESENTATION(#11,'Body','SweptSolid',(#1086));
#1088=IFCPRODUCTDEFINITIONSHAPE($,$,(#1087));
#1089=IFCROOF('8h888888-9999-0000-1111-222222222201',#5,'Engineered Wood Truss Roof Assembly (R-49 Mineral Wool Attic Insulation)',$,$,#1085,#1088,$);
#1090=IFCRECTANGLEPROFILEDEF(.AREA.,'Profile',$,0.0800,5.8000);
#1091=IFCCARTESIANPOINT((1.1000,0.6000,1.2000));
#1092=IFCDIRECTION((1.0000,0.0000,0.));
#1093=IFCAXIS2PLACEMENT3D(#1091,#7,#1092);
#1094=IFCLOCALPLACEMENT($,#1093);
#1095=IFCEXTRUDEDAREASOLID(#1090,#9,#31,0.0800);
#1096=IFCSHAPEREPRESENTATION(#11,'Body','SweptSolid',(#1095));
#1097=IFCPRODUCTDEFINITIONSHAPE($,$,(#1096));
#1098=IFCPIPESEGMENT('9i999999-0000-1111-2222-333333333301',#5,'3" Schedule 40 PVC Sanitary Soil Stack Pipe PS-01',$,$,#1094,#1097,$);
#1099=IFCRECTANGLEPROFILEDEF(.AREA.,'Profile',$,0.1500,0.1500);
#1100=IFCCARTESIANPOINT((1.1000,0.6000,0.2000));
#1101=IFCDIRECTION((1.0000,0.0000,0.));
#1102=IFCAXIS2PLACEMENT3D(#1100,#7,#1101);
#1103=IFCLOCALPLACEMENT($,#1102);
#1104=IFCEXTRUDEDAREASOLID(#1099,#9,#31,0.1500);
#1105=IFCSHAPEREPRESENTATION(#11,'Body','SweptSolid',(#1104));
#1106=IFCPRODUCTDEFINITIONSHAPE($,$,(#1105));
#1107=IFCPIPEFITTING('9i999999-0000-1111-2222-333333333302',#5,'3" PVC 90-Degree Long Sweep Sanitary Elbow PF-01',$,$,#1103,#1106,$);
#1108=IFCRECTANGLEPROFILEDEF(.AREA.,'Profile',$,0.4500,0.7500);
#1109=IFCCARTESIANPOINT((1.5000,0.6000,1.2000));
#1110=IFCDIRECTION((0.0000,1.0000,0.));
#1111=IFCAXIS2PLACEMENT3D(#1109,#7,#1110);
#1112=IFCLOCALPLACEMENT($,#1111);
#1113=IFCEXTRUDEDAREASOLID(#1108,#9,#31,0.7000);
#1114=IFCSHAPEREPRESENTATION(#11,'Body','SweptSolid',(#1113));
#1115=IFCPRODUCTDEFINITIONSHAPE($,$,(#1114));
#1116=IFCFLOWTERMINAL('9i999999-0000-1111-2222-333333333303',#5,'High-Efficiency Dual-Flush 1.28/0.8 GPF Water Closet Fixture WC-1',$,$,#1112,#1115,$);
#1117=IFCRECTANGLEPROFILEDEF(.AREA.,'Profile',$,0.3000,0.2000);
#1118=IFCCARTESIANPOINT((0.0000,3.2000,-1.0000));
#1119=IFCDIRECTION((1.0000,0.0000,0.));
#1120=IFCAXIS2PLACEMENT3D(#1118,#7,#1119);
#1121=IFCLOCALPLACEMENT($,#1120);
#1122=IFCEXTRUDEDAREASOLID(#1117,#9,#31,8.5000);
#1123=IFCSHAPEREPRESENTATION(#11,'Body','SweptSolid',(#1122));
#1124=IFCPRODUCTDEFINITIONSHAPE($,$,(#1123));
#1125=IFCDUCTSEGMENT('0j000000-1111-2222-3333-444444444401',#5,'12"x8" Galvanized Steel Insulated Main HVAC Supply Trunk DS-01',$,$,#1121,#1124,$);
#1126=IFCRECTANGLEPROFILEDEF(.AREA.,'Profile',$,0.6000,0.1000);
#1127=IFCCARTESIANPOINT((-2.0000,3.4000,2.0000));
#1128=IFCDIRECTION((1.0000,0.0000,0.));
#1129=IFCAXIS2PLACEMENT3D(#1127,#7,#1128);
#1130=IFCLOCALPLACEMENT($,#1129);
#1131=IFCEXTRUDEDAREASOLID(#1126,#9,#31,0.6000);
#1132=IFCSHAPEREPRESENTATION(#11,'Body','SweptSolid',(#1131));
#1133=IFCPRODUCTDEFINITIONSHAPE($,$,(#1132));
#1134=IFCFLOWTERMINAL('0j000000-1111-2222-3333-444444444402',#5,'Ceiling Supply Diffuser 4-Way Throw 2x2 FT-01',$,$,#1130,#1133,$);
#1135=IFCRECTANGLEPROFILEDEF(.AREA.,'Profile',$,0.3800,0.9000);
#1136=IFCCARTESIANPOINT((2.5000,1.4000,-2.0000));
#1137=IFCDIRECTION((1.0000,0.0000,0.));
#1138=IFCAXIS2PLACEMENT3D(#1136,#7,#1137);
#1139=IFCLOCALPLACEMENT($,#1138);
#1140=IFCEXTRUDEDAREASOLID(#1135,#9,#31,0.1200);
#1141=IFCSHAPEREPRESENTATION(#11,'Body','SweptSolid',(#1140));
#1142=IFCPRODUCTDEFINITIONSHAPE($,$,(#1141));
#1143=IFCELECTRICAPPLIANCE('1k111111-2222-3333-4444-555555555501',#5,'200A 120/240V 42-Space Main Electrical Breaker Panel EP-01',$,$,#1139,#1142,$);
#1144=IFCRECTANGLEPROFILEDEF(.AREA.,'Profile',$,0.0120,0.0100);
#1145=IFCCARTESIANPOINT((0.0000,0.4000,2.0000));
#1146=IFCDIRECTION((1.0000,0.0000,0.));
#1147=IFCAXIS2PLACEMENT3D(#1145,#7,#1146);
#1148=IFCLOCALPLACEMENT($,#1147);
#1149=IFCEXTRUDEDAREASOLID(#1144,#9,#31,12.0000);
#1150=IFCSHAPEREPRESENTATION(#11,'Body','SweptSolid',(#1149));
#1151=IFCPRODUCTDEFINITIONSHAPE($,$,(#1150));
#1152=IFCCABLESEGMENT('1k111111-2222-3333-4444-555555555502',#5,'12/2 NMB Romex Copper Building Cable Wire C-101',$,$,#1148,#1151,$);
#1153=IFCRECTANGLEPROFILEDEF(.AREA.,'Profile',$,0.0700,0.1100);
#1154=IFCCARTESIANPOINT((0.8000,1.1000,1.0000));
#1155=IFCDIRECTION((0.0000,1.0000,0.));
#1156=IFCAXIS2PLACEMENT3D(#1154,#7,#1155);
#1157=IFCLOCALPLACEMENT($,#1156);
#1158=IFCEXTRUDEDAREASOLID(#1153,#9,#31,0.0400);
#1159=IFCSHAPEREPRESENTATION(#11,'Body','SweptSolid',(#1158));
#1160=IFCPRODUCTDEFINITIONSHAPE($,$,(#1159));
#1161=IFCOUTLET('1k111111-2222-3333-4444-555555555503',#5,'20A 125V Tamper-Resistant Smartlock GFCI Duplex Receptacle OUT-1',$,$,#1157,#1160,$);
ENDSEC;
END-ISO-10303-21;